<svg width="41" height="40" viewBox="0 0 41 40" fill="none" xmlns="http://www.w3.org/2000/svg">
<path d="M28.4224 0.359375H12.6271C6.09492 0.359375 0.799561 5.65474 0.799561 12.1869V27.9822C0.799561 34.5144 6.09492 39.8098 12.6271 39.8098H28.4224C34.9546 39.8098 40.2499 34.5144 40.2499 27.9822V12.1869C40.2499 5.65474 34.9546 0.359375 28.4224 0.359375Z" fill="white" fill-opacity="0.2"/>
<path d="M30.9673 20.0843C30.9673 14.32 26.2889 9.6416 20.5245 9.6416C14.7601 9.6416 10.0818 14.32 10.0818 20.0843C10.0818 25.1386 13.6741 29.3471 18.436 30.3182V23.2172H16.3474V20.0843H18.436V17.4737C18.436 15.4582 20.0755 13.8187 22.0909 13.8187H24.7016V16.9515H22.6131C22.0387 16.9515 21.5688 17.4214 21.5688 17.9958V20.0843H24.7016V23.2172H21.5688V30.4749C26.8424 29.9527 30.9673 25.5041 30.9673 20.0843Z" fill="#F6F9FC"/>
</svg>
