<svg width="40" height="40" viewBox="0 0 40 40" fill="none" xmlns="http://www.w3.org/2000/svg">
<path d="M28.1168 0.519531H12.3214C5.78926 0.519531 0.493896 5.8149 0.493896 12.3471V28.1424C0.493896 34.6745 5.78926 39.9699 12.3214 39.9699H28.1168C34.6489 39.9699 39.9443 34.6745 39.9443 28.1424V12.3471C39.9443 5.8149 34.6489 0.519531 28.1168 0.519531Z" fill="white" fill-opacity="0.2"/>
<path d="M27.2966 30.6387H13.1739C11.3092 30.6387 9.79224 29.1249 9.79224 27.264V13.177C9.79224 11.316 11.3092 9.80225 13.1739 9.80225H27.2966C29.1607 9.80225 30.6777 11.316 30.6777 13.177V27.2645C30.6777 29.1255 29.1607 30.6387 27.2966 30.6387ZM16.8004 14.115H23.8086C25.2973 14.115 26.5041 15.3218 26.5041 16.8105V23.8187C26.5041 25.3073 25.2973 26.5141 23.8086 26.5141H16.8004C15.3118 26.5141 14.105 25.3073 14.105 23.8187V16.8105C14.105 15.3218 15.3118 14.115 16.8004 14.115ZM16.8004 12.4977C14.4186 12.4977 12.4877 14.4286 12.4877 16.8105V23.8187C12.4877 26.2005 14.4186 28.1314 16.8004 28.1314H23.8086C26.1905 28.1314 28.1214 26.2005 28.1214 23.8187V16.8105C28.1214 14.4286 26.1905 12.4977 23.8086 12.4977H16.8004ZM20.3045 24.0882C22.3887 24.0882 24.0782 22.3987 24.0782 20.3146C24.0782 18.2304 22.3887 16.5409 20.3045 16.5409C18.2204 16.5409 16.5309 18.2304 16.5309 20.3146C16.5309 22.3987 18.2204 24.0882 20.3045 24.0882ZM20.3045 22.4709C19.1136 22.4709 18.1482 21.5055 18.1482 20.3146C18.1482 19.1236 19.1136 18.1582 20.3045 18.1582C21.4955 18.1582 22.4609 19.1236 22.4609 20.3146C22.4609 21.5055 21.4955 22.4709 20.3045 22.4709ZM24.3477 17.3495C24.9432 17.3495 25.4259 16.8668 25.4259 16.2714C25.4259 15.6759 24.9432 15.1932 24.3477 15.1932C23.7523 15.1932 23.2696 15.6759 23.2696 16.2714C23.2696 16.8668 23.7523 17.3495 24.3477 17.3495Z" fill="#F6F9FC"/>
</svg>
