<svg width="41" height="41" viewBox="0 0 41 41" fill="none" xmlns="http://www.w3.org/2000/svg">
<path d="M28.2618 0.90918H12.4664C5.93428 0.90918 0.638916 6.20454 0.638916 12.7367V28.532C0.638916 35.0642 5.93428 40.3596 12.4664 40.3596H28.2618C34.7939 40.3596 40.0893 35.0642 40.0893 28.532V12.7367C40.0893 6.20454 34.7939 0.90918 28.2618 0.90918Z" fill="white" fill-opacity="0.2"/>
<path fill-rule="evenodd" clip-rule="evenodd" d="M28.1302 10.1914H12.5985C11.1277 10.1914 9.92163 11.356 9.92163 12.7761V27.7728C9.92163 29.1928 11.1277 30.3575 12.5985 30.3575H28.1302C29.6012 30.3575 30.8071 29.1928 30.8071 27.7728V12.7761C30.8071 11.356 29.6012 10.1914 28.1302 10.1914ZM17.101 19.9305V26.1562H14.2728V18.2999H17.101V19.9305ZM15.6812 17.1289C14.8944 17.1289 14.256 16.5129 14.256 15.7527C14.256 14.9924 14.8944 14.3772 15.6812 14.3772C16.4691 14.3772 17.107 14.9925 17.107 15.7527C17.107 16.5129 16.4692 17.1289 15.6812 17.1289ZM26.456 21.8709V26.1562H24.0193V22.3401C24.0193 21.4263 23.9169 20.2511 22.6198 20.2511C21.3031 20.2511 21.1041 21.2459 21.1041 22.2742V26.1562H18.7545V18.2999H21.0171V19.3502H21.0412C21.3786 18.762 22.2054 18.299 23.4365 18.299C25.5108 18.299 26.2157 19.2461 26.4086 20.7279C26.4543 21.0756 26.472 21.4508 26.472 21.8709H26.456Z" fill="#F6F9FC"/>
</svg>
