<svg width="40" height="40" viewBox="0 0 40 40" fill="none" xmlns="http://www.w3.org/2000/svg">
<path d="M27.8726 0.519531H12.0773C5.54512 0.519531 0.249756 5.8149 0.249756 12.3471V28.1424C0.249756 34.6745 5.54512 39.9699 12.0773 39.9699H27.8726C34.4048 39.9699 39.7001 34.6745 39.7001 28.1424V12.3471C39.7001 5.8149 34.4048 0.519531 27.8726 0.519531Z" fill="white" fill-opacity="0.2"/>
<path d="M19.975 9.80225C17.9096 9.80225 15.8906 10.4147 14.1733 11.5622C12.456 12.7096 11.1175 14.3406 10.3271 16.2487C9.53675 18.1569 9.32995 20.2566 9.73289 22.2823C10.1358 24.308 11.1304 26.1687 12.5908 27.6291C14.0513 29.0896 15.912 30.0841 17.9377 30.4871C19.9634 30.89 22.0631 30.6832 23.9712 29.8928C25.8794 29.1024 27.5103 27.764 28.6578 26.0467C29.8053 24.3294 30.4177 22.3104 30.4177 20.245C30.4178 18.8736 30.1478 17.5156 29.623 16.2486C29.0983 14.9816 28.3291 13.8303 27.3594 12.8606C26.3896 11.8909 25.2384 11.1217 23.9714 10.5969C22.7044 10.0722 21.3464 9.80213 19.975 9.80225ZM23.2953 25.6256C23.2562 25.723 23.1967 25.811 23.1208 25.8836C23.045 25.9562 22.9544 26.0118 22.8554 26.0465C22.7563 26.0813 22.6509 26.0945 22.5463 26.0852C22.4417 26.0759 22.3403 26.0443 22.2489 25.9926L19.414 23.7899L17.5946 25.4685C17.5524 25.4996 17.503 25.5197 17.451 25.5268C17.399 25.5339 17.346 25.5278 17.297 25.5091L17.6457 22.3883L17.6569 22.3972L17.664 22.3356C17.664 22.3356 22.7653 17.6912 22.9731 17.4933C23.1835 17.2959 23.1141 17.2531 23.1141 17.2531C23.1261 17.0124 22.7366 17.2531 22.7366 17.2531L15.9775 21.6015L13.1627 20.6429C13.1627 20.6429 12.7303 20.4878 12.6896 20.1468C12.6468 19.8085 13.1767 19.6247 13.1767 19.6247L24.3682 15.1787C24.3682 15.1787 25.2882 14.7688 25.2882 15.4476L23.2953 25.6256Z" fill="#F6F9FC"/>
</svg>
