<svg width="40" height="40" viewBox="0 0 40 40" fill="none" xmlns="http://www.w3.org/2000/svg">
<path d="M27.9566 0.214355H12.1613C5.6291 0.214355 0.33374 5.50972 0.33374 12.0419V27.8372C0.33374 34.3694 5.6291 39.6647 12.1613 39.6647H27.9566C34.4888 39.6647 39.7841 34.3694 39.7841 27.8372V12.0419C39.7841 5.50972 34.4888 0.214355 27.9566 0.214355Z" fill="white" fill-opacity="0.2"/>
<path d="M30.4969 18.0769C30.5438 16.738 30.2468 15.4092 29.6335 14.2138C29.2174 13.7233 28.6399 13.3923 28.0017 13.2784C25.3619 13.0423 22.7111 12.9455 20.0607 12.9885C17.4201 12.9435 14.7788 13.0372 12.1482 13.2691C11.6281 13.3623 11.1468 13.6029 10.7631 13.9613C9.9092 14.7376 9.81432 16.0658 9.71945 17.1883C9.5818 19.2064 9.5818 21.2313 9.71945 23.2495C9.7469 23.8812 9.84231 24.5083 10.0041 25.1202C10.1185 25.5926 10.3499 26.0297 10.6777 26.3923C11.0641 26.7697 11.5566 27.0239 12.0913 27.1219C14.1367 27.3708 16.1977 27.474 18.2581 27.4306C21.5787 27.4773 24.4914 27.4306 27.9353 27.1687C28.4832 27.0767 28.9895 26.8221 29.3869 26.4391C29.6525 26.1771 29.8509 25.8564 29.9656 25.5037C30.3049 24.4772 30.4715 23.403 30.4589 22.3234C30.4969 21.7996 30.4969 18.6381 30.4969 18.0769ZM17.9166 22.8847V17.0947L23.5331 20.0037C21.9582 20.8643 19.8805 21.8371 17.9166 22.8847Z" fill="#F6F9FC"/>
</svg>
