<svg width="76" height="76" viewBox="0 0 76 76" fill="none" xmlns="http://www.w3.org/2000/svg">
<path d="M65 14.4658V15.467V34.4464C65 43.8991 61.5324 52.596 55.7225 59.5018C51.1882 64.8966 45.227 69.2003 38.3698 71.9291L37.9996 72.0764L37.6296 71.9289C37.43 71.8493 37.2304 71.7679 37.0309 71.6849C37.0297 71.6845 37.0286 71.684 37.0275 71.6836L37.0111 71.6771L37.0108 71.677L37.0052 71.6748L37.0049 71.6747L36.9916 71.6699L36.9724 71.6619C36.8516 71.6118 36.731 71.5603 36.6104 71.5076C36.5675 71.4899 36.5246 71.4717 36.4801 71.4521C36.3807 71.4102 36.284 71.3675 36.1954 71.3284C36.0365 71.2598 35.8788 71.1898 35.7224 71.1183C35.6021 71.0634 35.4772 71.0064 35.3516 70.9478C35.2254 70.8902 35.1004 70.8317 34.9784 70.7741C34.8535 70.7152 34.7294 70.6552 34.6098 70.5974L34.609 70.597L65 14.4658ZM65 14.4658L63.9988 14.467M65 14.4658L63.9988 14.467M63.9988 14.467C62.0714 14.4694 60.1466 14.3254 58.2405 14.0361L58.2388 14.0359C54.6456 13.4971 51.1527 12.4163 47.8768 10.8293C44.4824 9.18102 41.3834 6.97217 38.7075 4.29328L37.9143 3.49921L37.2167 4.37841C35.1943 6.92703 32.7215 9.07344 29.9244 10.7088L29.9232 10.7095C22.5388 15.0401 14.9353 14.7262 12.0893 14.471L11 14.3734V15.467V34.4464C11 43.8992 14.4677 52.5963 20.2778 59.5022L20.2799 59.5046M63.9988 14.467L20.2799 59.5046M20.2799 59.5046C24.2338 64.174 29.1149 67.953 34.6075 70.5963L20.2799 59.5046Z" fill="#373737" stroke="white" stroke-width="2"/>
<path d="M38 55C47.3888 55 55 47.3888 55 38C55 28.6112 47.3888 21 38 21C28.6112 21 21 28.6112 21 38C21 47.3888 28.6112 55 38 55Z" fill="#383838"/>
<path d="M38 56C28.0747 56 20 47.9251 20 38C20 28.0749 28.0746 20 38 20C47.9254 20 56 28.0749 56 38C56 47.9251 47.9254 56 38 56ZM38 22.0377C34.8428 22.0376 31.7566 22.9737 29.1314 24.7276C26.5063 26.4815 24.4602 28.9744 23.252 31.8911C22.0437 34.8078 21.7275 38.0173 22.3434 41.1137C22.9592 44.2102 24.4795 47.0544 26.7119 49.2868C28.9443 51.5192 31.7886 53.0396 34.8851 53.6555C37.9816 54.2715 41.1912 53.9554 44.108 52.7473C47.0249 51.5391 49.5179 49.4932 51.272 46.8682C53.026 44.2432 53.9622 41.1571 53.9622 38C53.9575 33.7681 52.2743 29.7108 49.2818 26.7184C46.2894 23.7259 42.232 22.0426 38 22.0377V22.0377Z" fill="white"/>
<path d="M40.6797 47H34.0524C33.7733 47 33.5056 46.8963 33.3082 46.7116C33.1109 46.5269 33 46.2765 33 46.0153V37.9847C33 37.7235 33.1109 37.4731 33.3082 37.2884C33.5056 37.1037 33.7733 37 34.0524 37H40.6797C41.8251 37.0012 42.9233 37.4275 43.7332 38.1853C44.5432 38.9432 44.9987 39.9707 45 41.0425V42.9576C44.9987 44.0294 44.5431 45.0569 43.7332 45.8147C42.9232 46.5726 41.8251 46.9988 40.6797 47V47ZM35.1047 45.0306H40.6797C41.2671 45.03 41.8302 44.8114 42.2456 44.4228C42.6609 44.0342 42.8946 43.5073 42.8953 42.9576V41.0424C42.8946 40.4927 42.6609 39.9658 42.2456 39.5772C41.8302 39.1886 41.2671 38.97 40.6797 38.9694H35.1047V45.0306Z" fill="white"/>
<path d="M40.6797 39H34.0524C33.7733 39 33.5056 38.8963 33.3082 38.7116C33.1109 38.5269 33 38.2765 33 38.0153V29.9847C33 29.7235 33.1109 29.4731 33.3082 29.2884C33.5056 29.1037 33.7733 29 34.0524 29H40.6797C41.8251 29.0012 42.9233 29.4275 43.7332 30.1853C44.5432 30.9432 44.9987 31.9707 45 33.0425V34.9576C44.9987 36.0294 44.5431 37.0569 43.7332 37.8147C42.9232 38.5726 41.8251 38.9988 40.6797 39V39ZM35.1047 37.0306H40.6797C41.2671 37.03 41.8303 36.8114 42.2456 36.4228C42.661 36.0341 42.8946 35.5072 42.8953 34.9575V33.0424C42.8946 32.4927 42.6609 31.9658 42.2456 31.5772C41.8302 31.1886 41.2671 30.97 40.6797 30.9694H35.1047V37.0306Z" fill="white"/>
<path d="M35.9781 30.5684C35.7187 30.5684 35.4699 30.459 35.2865 30.2642C35.103 30.0694 35 29.8053 35 29.5298V27.0386C35 26.7631 35.103 26.499 35.2865 26.3042C35.4699 26.1094 35.7187 26 35.9781 26C36.2375 26 36.4863 26.1094 36.6697 26.3042C36.8531 26.499 36.9562 26.7631 36.9562 27.0386V29.5298C36.9562 29.8053 36.8531 30.0694 36.6697 30.2642C36.4863 30.459 36.2375 30.5684 35.9781 30.5684V30.5684ZM40.0219 30.5684C39.7625 30.5684 39.5137 30.459 39.3303 30.2642C39.1469 30.0694 39.0438 29.8053 39.0438 29.5298V27.0386C39.0438 26.7631 39.1469 26.499 39.3303 26.3042C39.5137 26.1094 39.7625 26 40.0219 26C40.2813 26 40.5301 26.1094 40.7135 26.3042C40.8969 26.499 41 26.7631 41 27.0386V29.5298C41 29.8053 40.8969 30.0694 40.7135 30.2642C40.5301 30.459 40.2813 30.5684 40.0219 30.5684ZM35.9781 49.9999C35.7187 49.9999 35.4699 49.8904 35.2865 49.6957C35.103 49.5009 35 49.2367 35 48.9613V46.4702C35 46.1947 35.103 45.9306 35.2865 45.7358C35.4699 45.541 35.7187 45.4316 35.9781 45.4316C36.2375 45.4316 36.4863 45.541 36.6697 45.7358C36.8531 45.9306 36.9562 46.1947 36.9562 46.4702V48.9614C36.9562 49.2369 36.8531 49.501 36.6697 49.6958C36.4863 49.8906 36.2375 50 35.9781 50V49.9999ZM40.0219 49.9999C39.7625 49.9999 39.5137 49.8904 39.3303 49.6957C39.1469 49.5009 39.0438 49.2367 39.0438 48.9613V46.4702C39.0438 46.1947 39.1469 45.9306 39.3303 45.7358C39.5137 45.541 39.7625 45.4316 40.0219 45.4316C40.2813 45.4316 40.5301 45.541 40.7135 45.7358C40.8969 45.9306 41 46.1947 41 46.4702V48.9614C41 49.2369 40.8969 49.501 40.7135 49.6958C40.5301 49.8906 40.2813 50 40.0219 50V49.9999Z" fill="white"/>
<path d="M35.8618 47H32.1382C31.8363 47 31.5468 46.8964 31.3334 46.7121C31.1199 46.5277 31 46.2777 31 46.017C31 45.7563 31.1199 45.5062 31.3334 45.3219C31.5468 45.1375 31.8363 45.034 32.1382 45.034H35.8618C36.1637 45.034 36.4532 45.1375 36.6666 45.3219C36.8801 45.5062 37 45.7563 37 46.017C37 46.2777 36.8801 46.5277 36.6666 46.7121C36.4532 46.8964 36.1637 47 35.8618 47ZM35.8618 30.966H32.1382C31.8363 30.966 31.5468 30.8625 31.3334 30.6781C31.1199 30.4938 31 30.2437 31 29.983C31 29.7223 31.1199 29.4723 31.3334 29.2879C31.5468 29.1036 31.8363 29 32.1382 29H35.8618C36.1637 29 36.4532 29.1036 36.6666 29.2879C36.8801 29.4723 37 29.7223 37 29.983C37 30.2437 36.8801 30.4938 36.6666 30.6781C36.4532 30.8625 36.1637 30.966 35.8618 30.966Z" fill="white"/>
<path d="M38 66C38.5523 66 39 65.5523 39 65C39 64.4477 38.5523 64 38 64C37.4477 64 37 64.4477 37 65C37 65.5523 37.4477 66 38 66Z" fill="white"/>
<path d="M38 14C38.5523 14 39 13.5523 39 13C39 12.4477 38.5523 12 38 12C37.4477 12 37 12.4477 37 13C37 13.5523 37.4477 14 38 14Z" fill="white"/>
<path d="M16 21C16.5523 21 17 20.5523 17 20C17 19.4477 16.5523 19 16 19C15.4477 19 15 19.4477 15 20C15 20.5523 15.4477 21 16 21Z" fill="white"/>
<path d="M60 21C60.5523 21 61 20.5523 61 20C61 19.4477 60.5523 19 60 19C59.4477 19 59 19.4477 59 20C59 20.5523 59.4477 21 60 21Z" fill="white"/>
</svg>
