<svg width="76" height="76" viewBox="0 0 76 76" fill="none" xmlns="http://www.w3.org/2000/svg">
<path d="M8 11H51L51.5 31.5L42 48L51 65H8V11Z" fill="white"/>
<path fill-rule="evenodd" clip-rule="evenodd" d="M28.3235 6.22399C28.3235 6.58083 28.6167 6.87266 28.9733 6.87266C29.3299 6.87266 29.623 6.58098 29.623 6.22399C29.623 5.86714 29.3298 5.57532 28.9733 5.57532C28.6166 5.57547 28.3235 5.86714 28.3235 6.22399ZM53.0564 50.7981H53.0577C53.1355 50.7978 53.2125 50.7821 53.2842 50.7519C53.3559 50.7217 53.4209 50.6776 53.4755 50.6221L59.3473 44.6629C59.7803 44.2313 60.4824 44.228 60.9174 44.6582L60.9228 44.6634L60.928 44.6687C61.1282 44.8772 61.2402 45.1549 61.2404 45.444C61.2404 45.7311 61.1291 46.0087 60.9321 46.2177L60.9269 46.2231L60.9216 46.2285C59.869 47.2911 58.8197 48.357 57.7737 49.4261C56.4683 50.7597 55.1633 52.09 53.8431 53.409C53.409 53.8426 52.704 53.8427 52.2701 53.4087L48.6095 49.7469C48.4003 49.5385 48.2825 49.2556 48.2819 48.9603C48.2819 48.6646 48.4 48.382 48.6092 48.1726C48.7119 48.0694 48.8339 47.9876 48.9683 47.9317C49.1028 47.8759 49.2469 47.8472 49.3925 47.8472C49.6904 47.8472 49.9711 47.9609 50.1826 48.1723L52.6346 50.6246C52.6896 50.6796 52.7548 50.7232 52.8266 50.7529C52.8984 50.7826 52.9754 50.7978 53.0531 50.7977C53.0543 50.7981 53.0553 50.7981 53.0564 50.7981ZM54.7646 36.8869C48.5542 36.8869 43.5035 41.9386 43.5035 48.1487C43.5035 54.3587 48.5542 59.4105 54.7646 59.4105C60.9712 59.4105 66.0256 54.3554 66.0256 48.1487C66.0258 41.9419 60.9713 36.8869 54.7646 36.8869V36.8869ZM18.9347 6.55946H24.4045C24.5387 6.56023 24.6692 6.51568 24.7749 6.43303C24.8806 6.35038 24.9553 6.23446 24.987 6.10405C25.4327 4.25779 27.0744 2.9689 28.9733 2.9689C30.8718 2.9689 32.5194 4.2566 32.9598 6.10583C32.9911 6.23488 33.0648 6.3497 33.169 6.43194C33.2733 6.51418 33.4021 6.55908 33.5349 6.55946H39.0116V12.5519H18.9347V6.55946ZM17.7471 10.8834V8.22789H7.70854C6.5105 8.22789 5.53601 9.19793 5.53601 10.3967V61.2141C5.53601 62.4131 6.51035 63.383 7.70854 63.383H41.6742L42.9132 60.7291H8.78427C8.62677 60.729 8.47573 60.6664 8.36436 60.5551C8.25299 60.4437 8.19041 60.2927 8.19037 60.1352V11.4773C8.19025 11.3993 8.20553 11.322 8.23534 11.2499C8.26514 11.1778 8.30889 11.1123 8.36406 11.0571C8.41923 11.002 8.48475 10.9582 8.55686 10.9284C8.62896 10.8986 8.70624 10.8833 8.78427 10.8834H17.7471V10.8834ZM51.8481 31.5139L51.8395 31.5157L51.8282 31.5177C51.4045 31.5918 51.0453 31.8206 50.7167 32.0871L49.7489 32.8722V11.4773C49.749 11.3993 49.7337 11.322 49.7039 11.2499C49.6741 11.1778 49.6304 11.1123 49.5752 11.0571C49.52 11.0019 49.4545 10.9582 49.3824 10.9284C49.3103 10.8986 49.233 10.8833 49.155 10.8834H40.1993V8.22789H50.2378C51.433 8.22789 52.4034 9.20209 52.4034 10.3967V31.4284L51.9006 31.5063C51.8832 31.509 51.8654 31.5109 51.8481 31.5139ZM53.1916 32.8329L53.0975 32.7927L52.9829 32.7901C52.855 32.7874 52.7316 32.743 52.6314 32.6635L52.5177 32.5739L52.3755 32.5467C52.2579 32.5241 52.1454 32.5129 52.0259 32.5301L52.0139 32.5319L52.002 32.5341C51.6392 32.6013 51.227 33.0097 50.9586 33.2589C50.5752 33.615 50.1747 33.988 49.6736 34.1685L49.6702 34.1697C49.6578 34.1737 49.6456 34.1781 49.6335 34.1829L49.615 34.1896L49.6098 34.1929C49.5794 34.2062 49.55 34.2221 49.521 34.2411L49.514 34.2457L49.5072 34.2505C49.4042 34.323 49.2812 34.3619 49.1553 34.3617C49.1023 34.3617 49.0482 34.3544 48.9975 34.3392L48.9041 34.3113L48.8067 34.3146C48.5624 34.3229 48.3173 34.3121 48.0731 34.3002C47.7145 34.2828 47.1378 34.2355 46.8306 34.4142C46.515 34.5978 46.264 35.1185 46.0972 35.4464C45.8598 35.9128 45.6094 36.4089 45.2025 36.7522C44.7884 37.1018 44.2555 37.2636 43.7471 37.4212C43.4017 37.5283 42.8487 37.6804 42.6175 37.9534C42.3956 38.2154 42.3398 38.7248 42.2937 39.0609L42.2786 39.1713L42.3046 39.2797C42.315 39.3232 42.3233 39.3698 42.3233 39.4148C42.3233 39.5231 42.2923 39.6264 42.2375 39.7197L42.1882 39.8034L42.1683 39.8984C42.1088 40.1816 42.0231 40.4609 41.8783 40.713C41.6109 41.1785 41.1692 41.5116 40.749 41.8303C40.4623 42.0476 39.9894 42.3799 39.8611 42.7173L39.8577 42.7264L39.8546 42.7355C39.7405 43.0683 39.8836 43.6209 39.9631 43.9688C40.082 44.4892 40.2057 45.0297 40.111 45.5648C40.0182 46.0893 39.7227 46.5436 39.4399 46.9839C39.347 47.1205 39.2583 47.2598 39.1739 47.4017L39.1011 47.5226L39.0906 47.6631C39.0841 47.7501 39.0523 47.8349 39.0073 47.9091L38.87 48.1356L38.9469 48.3891C39.0358 48.6823 39.2545 49.0081 39.4216 49.2666C39.7148 49.72 40.0171 50.1879 40.1105 50.7299C40.1879 51.1784 40.1197 51.6282 40.0299 52.0691L40.0102 52.166L40.0231 52.2641C40.0265 52.2902 40.025 52.3241 40.025 52.3505C40.025 52.4651 39.9903 52.5758 39.9306 52.6732L39.8702 52.7721L39.8513 52.8864C39.8168 53.0956 39.7853 53.3431 39.8496 53.5481L39.8537 53.5613L39.8585 53.5744C39.9858 53.9226 40.4629 54.2567 40.7559 54.4788C41.1724 54.7945 41.6132 55.1261 41.8784 55.587C42.1487 56.0568 42.2219 56.6065 42.2856 57.1358C42.3288 57.4956 42.385 58.0685 42.6138 58.3391C42.8433 58.6206 43.4026 58.7715 43.7564 58.8795C44.2617 59.0339 44.7854 59.1985 45.1976 59.5433C45.6116 59.8898 45.8651 60.3749 46.1023 60.8496L46.1072 60.8592C46.2741 61.1785 46.5192 61.7003 46.8333 61.8811C47.1445 62.0602 47.7168 62.0135 48.0791 61.9967C48.2701 61.9878 48.461 61.978 48.6524 61.978C48.9966 61.978 49.3456 62.0098 49.6709 62.1288C50.1777 62.3141 50.5771 62.6853 50.9652 63.0465C51.2334 63.2961 51.6492 63.7046 52.0067 63.768C52.3587 63.8304 52.8816 63.5884 53.214 63.4483C53.702 63.2425 54.2194 63.0258 54.7577 63.0258H54.7647C55.2933 63.0258 55.7938 63.2387 56.2719 63.4419C56.6138 63.5872 57.1502 63.8262 57.5129 63.7639C57.8868 63.6996 58.2968 63.2927 58.571 63.0378C58.953 62.6828 59.3501 62.3087 59.8496 62.1282C60.3593 61.944 60.916 61.97 61.4483 61.9966C61.8067 62.0145 62.3848 62.0613 62.6917 61.8827C63.0074 61.6991 63.2585 61.1784 63.4253 60.8505C63.6646 60.3802 63.9168 59.8908 64.3269 59.5447C64.7382 59.1976 65.2702 59.0339 65.7754 58.8774C66.1223 58.77 66.6773 58.6166 66.9078 58.3402C67.1368 58.0656 67.1962 57.4907 67.2367 57.1291C67.3086 56.6034 67.3754 56.0516 67.6443 55.5836C67.912 55.118 68.3565 54.785 68.7784 54.4683C69.0641 54.2536 69.5341 53.9147 69.6615 53.5796L69.6649 53.5705L69.668 53.5614C69.7821 53.2288 69.6389 52.6774 69.5595 52.3294C69.4406 51.8086 69.3169 51.2675 69.4116 50.7321C69.505 50.2045 69.8071 49.7481 70.0934 49.3069C70.2009 49.1413 70.3077 48.9738 70.4033 48.8009C70.5285 48.5744 70.6542 48.3126 70.6164 48.0466L70.6141 48.0314L70.6112 48.0164C70.5482 47.6951 70.28 47.3079 70.1013 47.0308C69.8071 46.5745 69.5086 46.1074 69.4113 45.5635C69.3146 45.0217 69.441 44.476 69.5598 43.9486C69.6382 43.6008 69.785 43.0565 69.6646 42.7242C69.539 42.377 69.0653 42.0391 68.7735 41.8178C68.3576 41.5024 67.9158 41.1696 67.6509 40.7093C67.3791 40.2368 67.3112 39.6873 67.2431 39.156C67.1969 38.7961 67.1445 38.2284 66.9122 37.9534L66.9038 37.9436C66.6673 37.6758 66.1125 37.5229 65.766 37.4169C65.2607 37.2626 64.737 37.0979 64.3248 36.7531C63.9091 36.4052 63.6609 35.9124 63.4164 35.4396C63.251 35.1199 63.003 34.596 62.6892 34.4154C62.3781 34.2364 61.8042 34.2822 61.442 34.2998C60.9103 34.3256 60.3593 34.3517 59.8502 34.1669C59.3439 33.9831 58.9446 33.6115 58.5577 33.2505C58.2868 32.9977 57.8794 32.5933 57.5165 32.5286C57.1639 32.4657 56.6413 32.7076 56.3085 32.8477C55.8168 33.0548 55.3076 33.2703 54.7646 33.2703C54.2349 33.2703 53.7406 33.0645 53.2615 32.8609C53.2385 32.8509 53.2152 32.8415 53.1916 32.8329V32.8329ZM64.3443 61.3198C64.5067 61.0017 64.7145 60.5634 64.9892 60.3347L64.999 60.3266C65.104 60.2431 65.2242 60.1775 65.3459 60.1218L65.8978 59.8697L69.124 67.3575L64.649 66.4403C64.5306 66.4162 64.4077 66.429 64.2969 66.4771C64.186 66.5252 64.0926 66.6061 64.0293 66.709L61.62 70.5912L58.8643 64.1896L59.1562 63.9046C59.1938 63.8679 59.2313 63.8314 59.2696 63.7955C59.5227 63.5581 59.8782 63.2207 60.2029 63.1005C60.5388 62.9759 61.0371 63.0113 61.3953 63.0288C62.0027 63.0585 62.6601 63.0947 63.2064 62.7784C63.7563 62.46 64.0654 61.8659 64.3443 61.3198ZM47.8291 72.3446L45.5396 68.3935C45.4152 68.1788 45.1633 68.0632 44.9193 68.1059L40.424 68.8934L44.5749 59.9803L45.1069 61.1637C45.1284 61.2116 45.1552 61.259 45.181 61.305L45.1869 61.3155L45.1924 61.3264C45.4707 61.8734 45.7645 62.4561 46.316 62.7756C46.8671 63.0947 47.5213 63.0591 48.1339 63.0291C48.4925 63.0114 48.9878 62.9749 49.3182 63.1003C49.6479 63.218 50.0027 63.5603 50.2639 63.8022C50.4948 64.0159 50.7266 64.2314 50.9845 64.4128L51.391 64.6987L47.8291 72.3446V72.3446Z" fill="white"/>
<path fill-rule="evenodd" clip-rule="evenodd" d="M59.7665 45.0835L53.8985 51.0388C53.6767 51.2626 53.3753 51.3895 53.0602 51.3917H53.0533C52.7389 51.3916 52.4374 51.2668 52.2149 51.0447L49.7628 48.5924C49.7142 48.5439 49.6565 48.5055 49.5929 48.4796C49.5294 48.4536 49.4613 48.4405 49.3926 48.4411C49.3251 48.4412 49.2583 48.4546 49.196 48.4806C49.1336 48.5065 49.077 48.5445 49.0294 48.5924C48.9315 48.6899 48.8762 48.8223 48.8756 48.9605C48.8756 49.0406 48.8966 49.1952 49.0294 49.3273L52.6899 52.9891C52.7873 53.086 52.9191 53.1405 53.0566 53.1405C53.194 53.1405 53.3259 53.086 53.4233 52.9891C55.2816 51.1323 56.2386 50.1481 57.3493 49.011C58.1666 48.1784 59.0889 47.2343 60.4999 45.8106C60.5935 45.7115 60.646 45.5805 60.6466 45.4442C60.6466 45.3638 60.6256 45.2111 60.4999 45.0803C60.2975 44.8801 59.9691 44.8816 59.7665 45.0835ZM62.1695 43.3974C62.7214 43.9406 63.0219 44.6662 63.0219 45.4382C63.0219 46.2102 62.7284 46.9361 62.1836 47.4837C60.7794 48.8983 59.8993 49.7993 59.047 50.6706C57.9363 51.8135 56.9723 52.8007 55.1001 54.6681C54.5412 55.2321 53.7937 55.514 53.0533 55.514C52.6732 55.5145 52.2968 55.44 51.9456 55.2949C51.5944 55.1497 51.2752 54.9367 51.0065 54.6681L47.3458 51.0076C47.077 50.7389 46.8639 50.4198 46.7188 50.0684C46.5738 49.7171 46.4996 49.3406 46.5006 48.9605C46.5006 48.1871 46.8011 47.4599 47.3458 46.9135C47.8977 46.3673 48.6242 46.066 49.3926 46.066C50.1681 46.066 50.8945 46.3671 51.4394 46.9135L53.0461 48.5198L58.0829 43.412C59.2076 42.278 61.0448 42.2737 62.1695 43.3974ZM64.2444 48.1487C64.2444 53.3765 59.99 57.6294 54.7647 57.6294C49.5325 57.6294 45.2851 53.3765 45.2851 48.1487C45.2851 42.9206 49.5325 38.668 54.7647 38.668C59.99 38.6681 64.2444 42.9207 64.2444 48.1487ZM66.6196 48.1487C66.6196 54.6859 61.2964 60.0042 54.7647 60.0042C48.2261 60.0042 42.9099 54.6859 42.9099 48.1487C42.9099 41.6115 48.2261 36.2931 54.7647 36.2931C61.2964 36.2931 66.6196 41.6116 66.6196 48.1487ZM70.0286 48.131C70.0495 48.2778 69.7632 48.7202 69.5954 48.9842C69.288 49.452 68.9457 49.9819 68.827 50.6292C68.7152 51.2853 68.8549 51.9101 68.9806 52.4623C69.0505 52.7669 69.1553 53.2269 69.1063 53.3692C69.0505 53.5163 68.6732 53.8043 68.4217 53.9942C67.9677 54.3342 67.4576 54.7187 67.1294 55.2885C66.8011 55.8616 66.7242 56.4955 66.6475 57.0566C66.6126 57.3681 66.5496 57.842 66.4518 57.9606C66.354 58.0763 65.8999 58.2173 65.5996 58.3109C65.0617 58.477 64.447 58.6656 63.944 59.0915C63.4411 59.5145 63.1476 60.0816 62.8961 60.5817C62.7495 60.8638 62.5329 61.2899 62.3931 61.37C62.2674 61.4442 61.7713 61.4189 61.478 61.4042C60.9121 61.3758 60.2694 61.3446 59.6477 61.5704C59.0331 61.7917 58.5719 62.2234 58.1668 62.6035C57.9153 62.8336 57.58 63.1499 57.4123 63.1793C57.2517 63.2063 56.8185 63.0281 56.5041 62.8961C55.9941 62.6777 55.4143 62.4328 54.7647 62.4328H54.7578C54.1011 62.4328 53.5073 62.6822 52.9833 62.9019C52.711 63.0178 52.2567 63.2092 52.1101 63.1841C51.9565 63.156 51.6 62.8293 51.3695 62.6126C50.9575 62.2311 50.4963 61.7975 49.8746 61.5719C49.4694 61.4221 49.0503 61.385 48.6521 61.385C48.4425 61.385 48.2468 61.3954 48.0514 61.4043C47.737 61.419 47.262 61.4427 47.1293 61.3672C46.9966 61.29 46.78 60.8655 46.6333 60.5848C46.3819 60.0816 46.0884 59.5132 45.5784 59.0885C45.0755 58.6655 44.4676 58.4785 43.9297 58.3122C43.6223 58.2202 43.1682 58.0805 43.0704 57.9604C42.9726 57.8446 42.9098 57.3757 42.8747 57.0653C42.8048 56.5041 42.7211 55.8674 42.3928 55.2914C42.0644 54.726 41.5545 54.3427 41.1144 54.006C40.856 53.8131 40.4717 53.5236 40.4159 53.3707C40.3949 53.3038 40.4089 53.1524 40.4368 52.9833C40.5546 52.7932 40.6175 52.5743 40.6185 52.3507C40.6185 52.2959 40.6185 52.241 40.6115 52.1875C40.7093 51.7067 40.7932 51.1798 40.6954 50.6291C40.5836 49.9641 40.2274 49.4221 39.9199 48.9443C39.7524 48.6872 39.5707 48.401 39.5149 48.2168C39.6057 48.067 39.6685 47.8932 39.6825 47.7077C39.7624 47.5737 39.8463 47.442 39.9339 47.3128C40.2343 46.8453 40.5766 46.3153 40.6954 45.6681C40.8072 45.0121 40.6675 44.3871 40.5418 43.8366C40.472 43.5306 40.3672 43.0706 40.416 42.9281C40.472 42.781 40.8561 42.4931 41.1076 42.3032C41.5547 41.9633 42.0647 41.5787 42.3931 41.0085C42.5748 40.691 42.6796 40.3526 42.7493 40.0202C42.8585 39.837 42.9164 39.6278 42.9171 39.4145C42.9171 39.3208 42.9031 39.2289 42.8822 39.1413C42.924 38.8357 42.98 38.4438 43.0708 38.3368C43.1687 38.2212 43.6227 38.08 43.9232 37.9881C44.4611 37.8204 45.0758 37.6317 45.5858 37.2059C46.0817 36.7828 46.3752 36.2158 46.6267 35.7156C46.7733 35.4334 46.9899 35.0075 47.1296 34.9272C47.2553 34.853 47.7514 34.8784 48.0447 34.8931C48.2961 34.9048 48.5615 34.9168 48.8271 34.9078C48.9337 34.9394 49.0443 34.9554 49.1554 34.9553C49.4139 34.9553 49.6514 34.8736 49.847 34.7372C49.854 34.7326 49.8679 34.7313 49.8749 34.727C50.4896 34.5056 50.9508 34.0737 51.3629 33.6938C51.6073 33.4638 51.9496 33.1476 52.1104 33.1178C52.1522 33.1118 52.2012 33.1178 52.264 33.1298C52.4653 33.2888 52.713 33.378 52.9695 33.3836C52.9835 33.3895 53.0044 33.3953 53.0184 33.4029C53.5284 33.6196 54.1082 33.8644 54.7649 33.8644C55.4285 33.8644 56.0153 33.615 56.5393 33.3953C56.8117 33.2797 57.2659 33.0867 57.4126 33.1135C57.5733 33.1415 57.9226 33.4682 58.1531 33.6849C58.5653 34.068 59.0264 34.5013 59.648 34.7253C60.2698 34.9526 60.9055 34.9213 61.4713 34.8931C61.7857 34.8784 62.2607 34.8546 62.3934 34.9302C62.5261 35.0074 62.7427 35.4319 62.8893 35.7124C63.1477 36.2156 63.4342 36.784 63.9443 37.2087C64.4472 37.6317 65.055 37.8189 65.593 37.985C65.9004 38.0771 66.3544 38.2181 66.4592 38.3368C66.5571 38.4526 66.6129 38.9217 66.6547 39.2319C66.7246 39.793 66.8015 40.4298 67.1367 41.0056C67.4581 41.5713 67.968 41.9541 68.4151 42.2912C68.6665 42.4842 69.0508 42.7736 69.1066 42.9265C69.1555 43.0632 69.0437 43.5366 68.9809 43.8185C68.8552 44.3738 68.7084 45.003 68.8273 45.6681C68.946 46.3331 69.2953 46.8751 69.6027 47.3529C69.7841 47.6335 69.9937 47.9529 70.0286 48.131ZM68.1284 66.5475L65.5927 60.662C65.5018 60.7034 65.4249 60.7466 65.3691 60.7911C65.2084 60.9248 65.0338 61.278 64.873 61.5898C64.5796 62.1673 64.2094 62.8841 63.5038 63.2923C62.8123 63.6931 62.0438 63.6543 61.3662 63.622C61.0099 63.6039 60.6047 63.5832 60.4091 63.6573C60.2204 63.7256 59.9271 63.9931 59.6756 64.2288C59.6408 64.2616 59.6057 64.2956 59.5709 64.3297L61.7155 69.3114L63.5248 66.396C63.6514 66.1891 63.8388 66.0265 64.0614 65.9303C64.284 65.8341 64.5309 65.8091 64.7682 65.8586L68.1284 66.5475ZM50.6431 64.8985C50.3496 64.6922 50.0912 64.4516 49.8607 64.2378C49.6022 63.9988 49.3088 63.7272 49.1131 63.6574C48.9176 63.5832 48.5124 63.604 48.1631 63.6221C47.4855 63.6545 46.7171 63.6932 46.0185 63.2895C45.32 62.8842 44.9707 62.1998 44.6633 61.5956C44.6279 61.5343 44.5953 61.4715 44.5655 61.4073L41.4429 68.1123L44.8171 67.5213C45.0571 67.48 45.3041 67.513 45.525 67.6157C45.7459 67.7183 45.9303 67.8859 46.0535 68.096L47.772 71.0616L50.6431 64.8985ZM41.2961 62.7891L41.9807 61.3227H8.7843C8.12761 61.3227 7.5968 60.7898 7.5968 60.1352V11.4773C7.5967 11.3214 7.62735 11.1669 7.68699 11.0228C7.74663 10.8786 7.83409 10.7477 7.94438 10.6374C8.05467 10.5271 8.18561 10.4396 8.32973 10.3799C8.47385 10.3203 8.62832 10.2896 8.7843 10.2897H17.1532V8.82165H7.70857C6.83531 8.82165 6.12979 9.52837 6.12979 10.3967V61.2142C6.12979 62.0827 6.83531 62.7892 7.70857 62.7892L41.2961 62.7891ZM19.5285 11.9581V7.15322H24.4045C24.6717 7.15324 24.9313 7.06361 25.1415 6.89866C25.3517 6.73372 25.5005 6.503 25.5641 6.24344C25.9413 4.6657 27.3455 3.56266 28.9731 3.56266C30.6007 3.56266 32.005 4.6657 32.3821 6.24344C32.5079 6.77782 32.9898 7.15322 33.5348 7.15322H38.4178V11.9581H19.5285ZM44.3559 34.6572C44.3559 35.1439 44.0624 35.5627 43.6432 35.7451C43.8598 35.6725 44.0484 35.594 44.1532 35.5063C44.3138 35.3725 44.4955 35.0191 44.6492 34.7075C44.6549 34.6966 44.6606 34.6856 44.6663 34.6746C44.9635 34.1031 45.3262 33.4056 46.0184 33.0049C46.6541 32.6399 47.3387 32.6382 47.9673 32.6665V12.6648H40.7929V13.1456C40.7929 13.8017 40.262 14.3331 39.6053 14.3331H18.3408C17.6842 14.3331 17.1533 13.8016 17.1533 13.1456V12.6648H9.97194V58.9475H41.0726C40.8165 58.4477 40.7424 57.8983 40.6747 57.3963C40.6723 57.378 40.6698 57.3597 40.6673 57.3416C40.6255 56.9883 40.5765 56.589 40.4717 56.4018C40.3669 56.2253 40.0525 55.9863 39.7731 55.7769C39.2561 55.385 38.6136 54.8981 38.334 54.1279C38.2572 53.9303 38.2223 53.733 38.2013 53.5384H27.4573C27.3013 53.5385 27.1468 53.5079 27.0027 53.4482C26.8585 53.3886 26.7276 53.3011 26.6173 53.1908C26.507 53.0805 26.4195 52.9495 26.3598 52.8054C26.3002 52.6613 26.2695 52.5068 26.2696 52.3508C26.2698 52.0359 26.395 51.7339 26.6177 51.5113C26.8404 51.2886 27.1424 51.1635 27.4573 51.1634H38.5227C38.5227 51.1087 38.5227 51.0581 38.5088 51.0134C38.4739 50.7937 38.2643 50.4674 38.0547 50.1524C37.7963 49.7518 37.5098 49.3035 37.3631 48.781H27.4573C27.3013 48.7811 27.1468 48.7505 27.0027 48.6908C26.8585 48.6312 26.7276 48.5437 26.6173 48.4334C26.507 48.3231 26.4195 48.1921 26.3598 48.048C26.3002 47.9039 26.2695 47.7494 26.2696 47.5934C26.2698 47.2785 26.395 46.9765 26.6177 46.7539C26.8404 46.5313 27.1424 46.4062 27.4573 46.4062H37.8801C37.9429 46.3023 38.0058 46.2013 38.0688 46.1032C38.0735 46.0959 38.0783 46.0886 38.0831 46.0812C38.2683 45.7973 38.4748 45.4806 38.5089 45.2824C38.5424 45.0773 38.4602 44.7081 38.3855 44.3728C38.3824 44.3588 38.3793 44.3448 38.3762 44.3309C38.2226 43.672 38.0548 42.9253 38.3343 42.1683C38.5928 41.4482 39.1586 40.9955 39.6756 40.6023H27.4576C27.3016 40.6024 27.1471 40.5717 27.003 40.512C26.8589 40.4524 26.7279 40.3649 26.6176 40.2546C26.5073 40.1443 26.4198 40.0133 26.3602 39.8692C26.3005 39.7251 26.2699 39.5706 26.2699 39.4146C26.2699 38.76 26.8009 38.227 27.4576 38.227H40.7864C40.8772 37.7713 41.0309 37.3113 41.3732 36.912C41.8902 36.2931 42.6236 36.0657 43.2663 35.8668C43.3221 35.849 43.3781 35.8327 43.4339 35.815C43.3468 35.8348 43.2578 35.8449 43.1685 35.8448H27.4573C27.3013 35.8449 27.1468 35.8142 27.0027 35.7546C26.8586 35.6949 26.7277 35.6074 26.6174 35.4971C26.5071 35.3868 26.4196 35.2559 26.3599 35.1118C26.3003 34.9676 26.2696 34.8132 26.2696 34.6572C26.2696 34.0026 26.8006 33.4697 27.4573 33.4697H43.1684C43.8249 33.4697 44.3559 34.0026 44.3559 34.6572ZM40.7931 8.82165H50.2378C51.1041 8.82165 51.8096 9.52837 51.8096 10.3967V30.9195C51.7817 30.9239 51.7537 30.9268 51.7258 30.9329C51.1739 31.0295 50.7268 31.3144 50.3426 31.626V11.4773C50.3427 11.3214 50.3121 11.1669 50.2524 11.0227C50.1928 10.8786 50.1053 10.7476 49.995 10.6373C49.8847 10.527 49.7537 10.4396 49.6096 10.3799C49.4655 10.3203 49.311 10.2896 49.155 10.2897H40.7931V8.82165ZM71.0136 51.0152C70.9787 51.2288 71.0626 51.6043 71.1463 51.9666C71.2999 52.6256 71.4677 53.3722 71.1951 54.1309C70.9156 54.8922 70.3009 55.357 69.756 55.7665C69.4767 55.9788 69.1553 56.2192 69.0505 56.4005C68.9457 56.5831 68.8969 56.9792 68.8549 57.331C68.771 58.0038 68.6732 58.7664 68.1563 59.3856C68.0376 59.522 67.9188 59.638 67.7861 59.7403L71.2091 67.6964C71.2953 67.8957 71.3252 68.1149 71.2956 68.33C71.266 68.5451 71.1781 68.748 71.0414 68.9167C70.9043 69.0851 70.7238 69.2127 70.5194 69.2857C70.3149 69.3586 70.0944 69.3742 69.8818 69.3307L65.1036 68.351L62.5328 72.4969C62.4182 72.6811 62.2555 72.8305 62.0622 72.9289C61.8689 73.0272 61.6523 73.0709 61.436 73.055C60.9958 73.0209 60.6047 72.7464 60.43 72.3398L57.44 65.4002C56.7694 65.4152 56.1547 65.1555 55.6447 64.9401C55.3233 64.805 54.9601 64.6521 54.7644 64.6521C54.5479 64.6521 54.1777 64.8093 53.8423 64.9474C53.6118 65.047 53.3674 65.1492 53.1088 65.2325L48.9662 74.1269C48.7775 74.5278 48.3864 74.7919 47.9463 74.811C47.9256 74.8125 47.9117 74.8125 47.8907 74.8125C47.4716 74.8125 47.0804 74.5885 46.8639 74.2217L44.4118 70.0033L39.6056 70.8433C39.1724 70.9205 38.7323 70.747 38.4599 70.3966C38.1945 70.0448 38.1386 69.5742 38.3272 69.1719L40.1923 65.1641H7.70857C5.52906 65.1641 3.75464 63.3917 3.75464 61.2142V10.3966C3.75464 8.219 5.52906 6.44665 7.70857 6.44665H17.1533V5.96572C17.1533 5.30962 17.6843 4.77822 18.3408 4.77822H23.5522C24.4535 2.62439 26.5701 1.18751 28.9733 1.18751C30.1302 1.185 31.262 1.52452 32.2265 2.16339C33.1911 2.80227 33.9452 3.71199 34.3942 4.77822H39.6056C39.7615 4.77814 39.916 4.8088 40.0601 4.86845C40.2042 4.9281 40.3352 5.01556 40.4455 5.12584C40.5558 5.23613 40.6433 5.36707 40.7029 5.51118C40.7626 5.65529 40.7933 5.80974 40.7932 5.96572V6.44665H50.238C52.4175 6.44665 54.1849 8.21915 54.1849 10.3966V31.4836C54.4085 31.5728 54.6251 31.6454 54.7647 31.6454C54.9743 31.6454 55.3515 31.4879 55.6799 31.3502C56.3015 31.0874 57.0072 30.7874 57.7966 30.9286C58.5999 31.0696 59.1937 31.6187 59.6688 32.0597C59.9203 32.2987 60.2137 32.5703 60.4092 32.6401C60.6049 32.7143 61.0101 32.6932 61.3594 32.6772C62.037 32.6429 62.8055 32.6043 63.504 33.0095C64.2025 33.4134 64.5518 34.0974 64.8662 34.7016C65.027 35.0163 65.2085 35.3727 65.3693 35.5077C65.5299 35.6428 65.9142 35.7585 66.2495 35.8625C66.8992 36.0614 67.6326 36.2872 68.1566 36.909C68.6736 37.5265 68.7715 38.2865 68.8552 38.9574C68.897 39.3092 68.946 39.7084 69.0578 39.8956C69.1556 40.072 69.477 40.311 69.7494 40.5205C70.2664 40.9124 70.9159 41.3991 71.1954 42.1695C71.4678 42.922 71.2933 43.6628 71.1466 44.3174C71.0627 44.6824 70.9719 45.0627 71.0139 45.2837C71.0488 45.5032 71.2653 45.8299 71.468 46.1446C71.7614 46.6033 72.1037 47.1246 72.2084 47.7448C72.3901 48.7528 71.873 49.5513 71.454 50.1942C71.265 50.4835 71.0555 50.8118 71.0136 51.0152ZM21.3797 46.7148C21.8616 46.2741 22.6161 46.3112 23.0563 46.7964C23.4964 47.2818 23.4545 48.0331 22.9724 48.4739L17.7331 53.2313C17.5126 53.4296 17.2264 53.539 16.9298 53.5386C16.7741 53.5386 16.6199 53.508 16.4761 53.4484C16.3323 53.3888 16.2016 53.3014 16.0916 53.1913L13.9328 51.0328C13.4718 50.5697 13.4718 49.8171 13.9328 49.354C14.1561 49.1308 14.4589 49.0054 14.7746 49.0054C15.0903 49.0054 15.3931 49.1308 15.6164 49.354L16.9717 50.7122L21.3797 46.7148ZM21.3797 33.7785C21.8616 33.3376 22.6161 33.3746 23.0563 33.8601C23.4964 34.3456 23.4545 35.0966 22.9724 35.5376L17.7331 40.295C17.5126 40.4932 17.2264 40.6027 16.9298 40.6023C16.7741 40.6023 16.6199 40.5716 16.4761 40.512C16.3323 40.4523 16.2016 40.3649 16.0916 40.2548L13.933 38.0966C13.472 37.6335 13.472 36.8809 13.933 36.4178C14.1563 36.1946 14.4591 36.0693 14.7748 36.0693C15.0905 36.0693 15.3933 36.1946 15.6166 36.4178L16.9718 37.7759L21.3797 33.7785ZM43.1684 25.2908C43.4833 25.2909 43.7854 25.416 44.0081 25.6387C44.2308 25.8614 44.3559 26.1635 44.356 26.4784C44.3561 26.6344 44.3254 26.7889 44.2657 26.933C44.206 27.0771 44.1186 27.208 44.0083 27.3183C43.898 27.4285 43.767 27.516 43.6229 27.5756C43.4788 27.6353 43.3243 27.6659 43.1684 27.6658H27.4573C27.3013 27.6659 27.1469 27.6353 27.0027 27.5756C26.8586 27.516 26.7277 27.4285 26.6174 27.3183C26.5071 27.208 26.4196 27.0771 26.3599 26.933C26.3003 26.7889 26.2696 26.6344 26.2696 26.4784C26.2696 25.8238 26.8006 25.2908 27.4573 25.2908H43.1684ZM27.4573 22.9082C27.3013 22.9083 27.1468 22.8777 27.0027 22.8181C26.8586 22.7585 26.7276 22.671 26.6173 22.5607C26.507 22.4505 26.4195 22.3195 26.3599 22.1754C26.3002 22.0313 26.2696 21.8768 26.2696 21.7209C26.2696 21.0663 26.8006 20.5334 27.4573 20.5334H43.1684C43.4833 20.5334 43.7853 20.6585 44.0081 20.8812C44.2308 21.1039 44.3559 21.4059 44.356 21.7209C44.3561 21.8768 44.3254 22.0313 44.2658 22.1754C44.2061 22.3195 44.1186 22.4505 44.0083 22.5607C43.898 22.671 43.767 22.7585 43.6229 22.8181C43.4788 22.8777 43.3243 22.9083 43.1684 22.9082H27.4573ZM21.3797 20.9564C21.8616 20.5157 22.6161 20.5512 23.0563 21.0366C23.4964 21.522 23.4545 22.2731 22.9724 22.7141L17.7331 27.4715C17.5127 27.6701 17.2265 27.78 16.9298 27.7801C16.6152 27.7796 16.3137 27.6542 16.0916 27.4314L13.933 25.2733C13.472 24.8102 13.472 24.0576 13.933 23.5942C14.1567 23.3717 14.4593 23.2468 14.7748 23.2468C15.0903 23.2468 15.3929 23.3717 15.6166 23.5942L16.9718 24.9527L21.3797 20.9564ZM27.7298 6.224C27.7298 6.90844 28.2887 7.46642 28.9733 7.46642C29.6579 7.46642 30.2167 6.90844 30.2167 6.224C30.2167 5.53955 29.6579 4.98158 28.9733 4.98158C28.2887 4.98173 27.7298 5.5397 27.7298 6.224Z" fill="#373737"/>
</svg>
